/* XPM */
static char *close_xpm[] = {
"14 14 2 1",
" 	c #A0A0F0",
".	c #000000",
"              ",
"              ",
"  ...    ...  ",
"   ...  ...   ",
"    ......    ",
"     ....     ",
"     ....     ",
"    ......    ",
"   ...  ...   ",
"  ...    ...  ",
"              ",
"              ",
"              ",
"              "};
