/* XPM */
static char *maximizeI_xpm[] = {
"14 28 2 1",
" 	c #C0C0C0",
".	c #000000",
"              ",
"              ",
"  ..........  ",
"  ..........  ",
"  .        .  ",
"  .        .  ",
"  .        .  ",
"  .        .  ",
"  .        .  ",
"  ..........  ",
"              ",
"              ",
"              ",
"              ",
"              ",
"              ",
"              ",
"  ..........  ",
"  ..........  ",
"  .        .  ",
"  .        .  ",
"  .        .  ",
"  .        .  ",
"  .        .  ",
"  ..........  ",
"              ",
"              ",
"              "};
