/* XPM */
static char *minimize_xpm[] = {
"14 14 2 1",
" 	c #A0A0F0",
".	c #000000",
"              ",
"              ",
"              ",
"              ",
"              ",
"              ",
"              ",
"              ",
"   ........   ",
"   ........   ",
"              ",
"              ",
"              ",
"              "};
