/* XPM */
static char *restoreA_xpm[] = {
"14 28 2 1",
" 	c #A0A0F0",
".	c #000000",
"              ",
"   .........  ",
"           .  ",
"  ........ .  ",
"  ........ .  ",
"  .      . .  ",
"  .      . .  ",
"  .      . .  ",
"  .      . .  ",
"  .      . .  ",
"  ........    ",
"              ",
"              ",
"              ",
"              ",
"              ",
"   .........  ",
"           .  ",
"  ........ .  ",
"  ........ .  ",
"  .      . .  ",
"  .      . .  ",
"  .      . .  ",
"  .      . .  ",
"  .      . .  ",
"  ........    ",
"              ",
"              "};
